<svg width="158" height="54" viewBox="0 0 158 54" fill="none" xmlns="http://www.w3.org/2000/svg">
<path d="M39 9.60005C38.2 7.46672 38.2 5.68895 39 4.26672" stroke="#FF8C42" stroke-width="1.33333" stroke-linecap="round"/>
<path d="M45 7.99996C44.2 5.86662 44.2 4.08885 45 2.66663" stroke="#FF8C42" stroke-width="1.33333" stroke-linecap="round"/>
<path d="M51 9.60005C50.2 7.46672 50.2 5.68895 51 4.26672" stroke="#FF8C42" stroke-width="1.33333" stroke-linecap="round"/>
<path d="M15 24H22.8" stroke="#FF8C42" stroke-width="1.6" stroke-linecap="round"/>
<path d="M12 27.7333H21" stroke="#FF8C42" stroke-width="1.6" stroke-linecap="round"/>
<path d="M15 31.4667H22.8" stroke="#FF8C42" stroke-width="1.6" stroke-linecap="round"/>
<path d="M42 40C51.2784 40 58.8 38.806 58.8 37.3333C58.8 35.8605 51.2784 34.6666 42 34.6666C32.7216 34.6666 25.2 35.8605 25.2 37.3333C25.2 38.806 32.7216 40 42 40Z" fill="#FF8C42"/>
<path d="M27 37.3334V25.6C27 18.4889 32 14.4 42 13.3334C52 14.4 57 18.4889 57 25.6V37.3334H27Z" fill="#FF8C42"/>
<path d="M31.2 24C31.2 20.4444 34.8 18.1333 42 17.0667C46 18.1333 49 19.9111 51 22.4" stroke="white" stroke-opacity="0.3" stroke-width="1.33333" stroke-linecap="round"/>
<path d="M42 15.2C43.1598 15.2 44.1 14.3643 44.1 13.3333C44.1 12.3024 43.1598 11.4667 42 11.4667C40.8402 11.4667 39.9 12.3024 39.9 13.3333C39.9 14.3643 40.8402 15.2 42 15.2Z" fill="#FF8C42"/>
<path d="M42.9 10.4C42.9 9.95815 42.4971 9.59998 42 9.59998C41.5029 9.59998 41.1 9.95815 41.1 10.4V13.0666C41.1 13.5085 41.5029 13.8666 42 13.8666C42.4971 13.8666 42.9 13.5085 42.9 13.0666V10.4Z" fill="#FF8C42"/>
<path d="M63.4943 16.2121H67.6278L71.608 23.7291H71.7784L75.7585 16.2121H79.892L73.5256 27.4962V33.6666H69.8608V27.4962L63.4943 16.2121ZM82.4412 33.9138C81.606 33.9138 80.8616 33.7689 80.2082 33.4791C79.5548 33.1837 79.0378 32.749 78.6571 32.1751C78.2821 31.5956 78.0946 30.874 78.0946 30.0104C78.0946 29.2831 78.2281 28.6723 78.4952 28.178C78.7622 27.6837 79.1259 27.2859 79.5861 26.9848C80.0463 26.6837 80.569 26.4564 81.1543 26.303C81.7452 26.1496 82.3645 26.0416 83.0122 25.9791C83.7736 25.8996 84.3872 25.8257 84.8531 25.7575C85.319 25.6837 85.6571 25.5757 85.8673 25.4337C86.0776 25.2916 86.1827 25.0814 86.1827 24.803V24.7519C86.1827 24.2121 86.0122 23.7945 85.6713 23.499C85.3361 23.2036 84.8588 23.0558 84.2395 23.0558C83.5861 23.0558 83.0662 23.2007 82.6798 23.4905C82.2935 23.7746 82.0378 24.1325 81.9128 24.5644L78.5548 24.2916C78.7253 23.4962 79.0605 22.8087 79.5605 22.2291C80.0605 21.6439 80.7054 21.195 81.4952 20.8825C82.2906 20.5644 83.2111 20.4053 84.2565 20.4053C84.9838 20.4053 85.6798 20.4905 86.3446 20.6609C87.0151 20.8314 87.6088 21.0956 88.1259 21.4536C88.6486 21.8115 89.0605 22.2717 89.3616 22.8342C89.6628 23.3911 89.8134 24.0587 89.8134 24.8371V33.6666H86.3702V31.8513H86.2679C86.0577 32.2604 85.7764 32.6212 85.4241 32.9337C85.0719 33.2405 84.6486 33.482 84.1543 33.6581C83.6599 33.8286 83.0889 33.9138 82.4412 33.9138ZM83.481 31.4081C84.0151 31.4081 84.4866 31.303 84.8957 31.0928C85.3048 30.8769 85.6259 30.5871 85.8588 30.2234C86.0918 29.8598 86.2082 29.4479 86.2082 28.9876V27.5984C86.0946 27.6723 85.9384 27.7405 85.7395 27.803C85.5463 27.8598 85.3276 27.9138 85.0832 27.9649C84.8389 28.0104 84.5946 28.053 84.3503 28.0928C84.106 28.1269 83.8844 28.1581 83.6855 28.1865C83.2594 28.249 82.8872 28.3484 82.569 28.4848C82.2509 28.6212 82.0037 28.8058 81.8276 29.0388C81.6514 29.2661 81.5634 29.5501 81.5634 29.8911C81.5634 30.3854 81.7423 30.7632 82.1003 31.0246C82.4639 31.2803 82.9241 31.4081 83.481 31.4081ZM95.3199 29.8996L95.3284 25.5445H95.8568L100.05 20.5757H104.218L98.5841 27.1553H97.7233L95.3199 29.8996ZM92.0301 33.6666V16.2121H95.6608V33.6666H92.0301ZM100.212 33.6666L96.3597 27.9649L98.7801 25.3996L104.465 33.6666H100.212ZM109.132 33.9138C108.297 33.9138 107.552 33.7689 106.899 33.4791C106.245 33.1837 105.728 32.749 105.348 32.1751C104.973 31.5956 104.785 30.874 104.785 30.0104C104.785 29.2831 104.919 28.6723 105.186 28.178C105.453 27.6837 105.816 27.2859 106.277 26.9848C106.737 26.6837 107.26 26.4564 107.845 26.303C108.436 26.1496 109.055 26.0416 109.703 25.9791C110.464 25.8996 111.078 25.8257 111.544 25.7575C112.01 25.6837 112.348 25.5757 112.558 25.4337C112.768 25.2916 112.873 25.0814 112.873 24.803V24.7519C112.873 24.2121 112.703 23.7945 112.362 23.499C112.027 23.2036 111.549 23.0558 110.93 23.0558C110.277 23.0558 109.757 23.2007 109.37 23.4905C108.984 23.7746 108.728 24.1325 108.603 24.5644L105.245 24.2916C105.416 23.4962 105.751 22.8087 106.251 22.2291C106.751 21.6439 107.396 21.195 108.186 20.8825C108.981 20.5644 109.902 20.4053 110.947 20.4053C111.674 20.4053 112.37 20.4905 113.035 20.6609C113.706 20.8314 114.299 21.0956 114.816 21.4536C115.339 21.8115 115.751 22.2717 116.052 22.8342C116.353 23.3911 116.504 24.0587 116.504 24.8371V33.6666H113.061V31.8513H112.959C112.748 32.2604 112.467 32.6212 112.115 32.9337C111.763 33.2405 111.339 33.482 110.845 33.6581C110.351 33.8286 109.78 33.9138 109.132 33.9138ZM110.172 31.4081C110.706 31.4081 111.177 31.303 111.586 31.0928C111.995 30.8769 112.316 30.5871 112.549 30.2234C112.782 29.8598 112.899 29.4479 112.899 28.9876V27.5984C112.785 27.6723 112.629 27.7405 112.43 27.803C112.237 27.8598 112.018 27.9138 111.774 27.9649C111.53 28.0104 111.285 28.053 111.041 28.0928C110.797 28.1269 110.575 28.1581 110.376 28.1865C109.95 28.249 109.578 28.3484 109.26 28.4848C108.941 28.6212 108.694 28.8058 108.518 29.0388C108.342 29.2661 108.254 29.5501 108.254 29.8911C108.254 30.3854 108.433 30.7632 108.791 31.0246C109.155 31.2803 109.615 31.4081 110.172 31.4081ZM122.351 16.2121V33.6666H118.721V16.2121H122.351ZM124.66 33.6666V20.5757H128.12V22.8854H128.273C128.546 22.1183 129.001 21.5132 129.637 21.07C130.273 20.6269 131.035 20.4053 131.921 20.4053C132.819 20.4053 133.583 20.6297 134.214 21.0786C134.844 21.5217 135.265 22.124 135.475 22.8854H135.612C135.879 22.1354 136.362 21.5359 137.06 21.0871C137.765 20.6325 138.597 20.4053 139.558 20.4053C140.779 20.4053 141.771 20.7945 142.532 21.5729C143.299 22.3456 143.683 23.4422 143.683 24.8626V33.6666H140.06V25.5786C140.06 24.8513 139.867 24.3058 139.481 23.9422C139.094 23.5786 138.612 23.3967 138.032 23.3967C137.373 23.3967 136.859 23.607 136.489 24.0274C136.12 24.4422 135.935 24.9905 135.935 25.6723V33.6666H132.415V25.5019C132.415 24.8598 132.231 24.3484 131.862 23.9678C131.498 23.5871 131.018 23.3967 130.421 23.3967C130.018 23.3967 129.654 23.499 129.33 23.7036C129.012 23.9024 128.759 24.1837 128.572 24.5473C128.384 24.9053 128.29 25.3257 128.29 25.8087V33.6666H124.66ZM149.683 33.9138C148.848 33.9138 148.104 33.7689 147.45 33.4791C146.797 33.1837 146.28 32.749 145.899 32.1751C145.524 31.5956 145.337 30.874 145.337 30.0104C145.337 29.2831 145.47 28.6723 145.737 28.178C146.004 27.6837 146.368 27.2859 146.828 26.9848C147.288 26.6837 147.811 26.4564 148.396 26.303C148.987 26.1496 149.607 26.0416 150.254 25.9791C151.016 25.8996 151.629 25.8257 152.095 25.7575C152.561 25.6837 152.899 25.5757 153.11 25.4337C153.32 25.2916 153.425 25.0814 153.425 24.803V24.7519C153.425 24.2121 153.254 23.7945 152.913 23.499C152.578 23.2036 152.101 23.0558 151.482 23.0558C150.828 23.0558 150.308 23.2007 149.922 23.4905C149.536 23.7746 149.28 24.1325 149.155 24.5644L145.797 24.2916C145.967 23.4962 146.303 22.8087 146.803 22.2291C147.303 21.6439 147.948 21.195 148.737 20.8825C149.533 20.5644 150.453 20.4053 151.499 20.4053C152.226 20.4053 152.922 20.4905 153.587 20.6609C154.257 20.8314 154.851 21.0956 155.368 21.4536C155.891 21.8115 156.303 22.2717 156.604 22.8342C156.905 23.3911 157.056 24.0587 157.056 24.8371V33.6666H153.612V31.8513H153.51C153.3 32.2604 153.019 32.6212 152.666 32.9337C152.314 33.2405 151.891 33.482 151.396 33.6581C150.902 33.8286 150.331 33.9138 149.683 33.9138ZM150.723 31.4081C151.257 31.4081 151.729 31.303 152.138 31.0928C152.547 30.8769 152.868 30.5871 153.101 30.2234C153.334 29.8598 153.45 29.4479 153.45 28.9876V27.5984C153.337 27.6723 153.181 27.7405 152.982 27.803C152.788 27.8598 152.57 27.9138 152.325 27.9649C152.081 28.0104 151.837 28.053 151.592 28.0928C151.348 28.1269 151.127 28.1581 150.928 28.1865C150.502 28.249 150.129 28.3484 149.811 28.4848C149.493 28.6212 149.246 28.8058 149.07 29.0388C148.894 29.2661 148.806 29.5501 148.806 29.8911C148.806 30.3854 148.985 30.7632 149.342 31.0246C149.706 31.2803 150.166 31.4081 150.723 31.4081Z" fill="#1A1A1A"/>
</svg>
