<svg width="209" height="54" viewBox="0 0 209 54" fill="none" xmlns="http://www.w3.org/2000/svg">
<path d="M36.8333 9.60005C36.0778 7.46672 36.0778 5.68895 36.8333 4.26672" stroke="#A0430A" stroke-width="1.33333" stroke-linecap="round"/>
<path d="M42.5 7.99996C41.7444 5.86662 41.7444 4.08885 42.5 2.66663" stroke="#A0430A" stroke-width="1.33333" stroke-linecap="round"/>
<path d="M48.1666 9.60005C47.4111 7.46672 47.4111 5.68895 48.1666 4.26672" stroke="#A0430A" stroke-width="1.33333" stroke-linecap="round"/>
<path d="M14.1667 24H21.5333" stroke="#A0430A" stroke-width="1.6" stroke-linecap="round"/>
<path d="M11.3333 27.7333H19.8333" stroke="#A0430A" stroke-width="1.6" stroke-linecap="round"/>
<path d="M14.1667 31.4667H21.5333" stroke="#A0430A" stroke-width="1.6" stroke-linecap="round"/>
<path d="M39.6667 40C48.4296 40 55.5333 38.806 55.5333 37.3333C55.5333 35.8605 48.4296 34.6666 39.6667 34.6666C30.9038 34.6666 23.8 35.8605 23.8 37.3333C23.8 38.806 30.9038 40 39.6667 40Z" fill="#A0430A"/>
<path d="M25.5 37.3334V25.6C25.5 18.4889 30.2222 14.4 39.6667 13.3334C49.1111 14.4 53.8333 18.4889 53.8333 25.6V37.3334H25.5Z" fill="#A0430A"/>
<path d="M29.4667 24C29.4667 20.4444 32.8667 18.1333 39.6667 17.0667C43.4444 18.1333 46.2778 19.9111 48.1667 22.4" stroke="white" stroke-opacity="0.3" stroke-width="1.33333" stroke-linecap="round"/>
<path d="M39.6667 15.2C40.762 15.2 41.65 14.3643 41.65 13.3333C41.65 12.3024 40.762 11.4667 39.6667 11.4667C38.5713 11.4667 37.6833 12.3024 37.6833 13.3333C37.6833 14.3643 38.5713 15.2 39.6667 15.2Z" fill="#A0430A"/>
<path d="M40.5166 10.4C40.5166 9.95815 40.1361 9.59998 39.6666 9.59998C39.1972 9.59998 38.8167 9.95815 38.8167 10.4V13.0666C38.8167 13.5085 39.1972 13.8666 39.6666 13.8666C40.1361 13.8666 40.5166 13.5085 40.5166 13.0666V10.4Z" fill="#A0430A"/>
<path d="M85.248 13.2026L77.472 28.2426V35.6666H72V28.2426L64.224 13.2026H70.432L74.784 22.6106L79.104 13.2026H85.248ZM85.7647 26.7066C85.7647 24.872 86.1061 23.2613 86.7887 21.8746C87.4927 20.488 88.4421 19.4213 89.6367 18.6746C90.8314 17.928 92.1648 17.5546 93.6368 17.5546C94.8954 17.5546 95.9941 17.8106 96.9327 18.3226C97.8928 18.8346 98.6288 19.5066 99.1407 20.3386V17.8106H104.613V35.6666H99.1407V33.1386C98.6074 33.9706 97.8608 34.6426 96.9008 35.1546C95.9621 35.6666 94.8634 35.9226 93.6047 35.9226C92.1541 35.9226 90.8314 35.5493 89.6367 34.8026C88.4421 34.0346 87.4927 32.9573 86.7887 31.5706C86.1061 30.1626 85.7647 28.5413 85.7647 26.7066ZM99.1407 26.7386C99.1407 25.3733 98.7568 24.296 97.9888 23.5066C97.2421 22.7173 96.3248 22.3226 95.2367 22.3226C94.1487 22.3226 93.2207 22.7173 92.4528 23.5066C91.7061 24.2746 91.3327 25.3413 91.3327 26.7066C91.3327 28.072 91.7061 29.16 92.4528 29.9706C93.2207 30.76 94.1487 31.1546 95.2367 31.1546C96.3248 31.1546 97.2421 30.76 97.9888 29.9706C98.7568 29.1813 99.1407 28.104 99.1407 26.7386ZM118.884 35.6666L113.443 28.1786V35.6666H107.971V11.9866H113.443V25.0746L118.851 17.8106H125.604L118.179 26.7706L125.667 35.6666H118.884ZM126.065 26.7066C126.065 24.872 126.406 23.2613 127.089 21.8746C127.793 20.488 128.742 19.4213 129.937 18.6746C131.131 17.928 132.465 17.5546 133.937 17.5546C135.195 17.5546 136.294 17.8106 137.233 18.3226C138.193 18.8346 138.929 19.5066 139.441 20.3386V17.8106H144.913V35.6666H139.441V33.1386C138.907 33.9706 138.161 34.6426 137.201 35.1546C136.262 35.6666 135.163 35.9226 133.905 35.9226C132.454 35.9226 131.131 35.5493 129.937 34.8026C128.742 34.0346 127.793 32.9573 127.089 31.5706C126.406 30.1626 126.065 28.5413 126.065 26.7066ZM139.441 26.7386C139.441 25.3733 139.057 24.296 138.289 23.5066C137.542 22.7173 136.625 22.3226 135.537 22.3226C134.449 22.3226 133.521 22.7173 132.753 23.5066C132.006 24.2746 131.633 25.3413 131.633 26.7066C131.633 28.072 132.006 29.16 132.753 29.9706C133.521 30.76 134.449 31.1546 135.537 31.1546C136.625 31.1546 137.542 30.76 138.289 29.9706C139.057 29.1813 139.441 28.104 139.441 26.7386ZM153.743 11.9866V35.6666H148.271V11.9866H153.743ZM179.893 17.6186C182.112 17.6186 183.872 18.2906 185.173 19.6346C186.496 20.9786 187.157 22.8453 187.157 25.2346V35.6666H181.717V25.9706C181.717 24.8186 181.408 23.9333 180.789 23.3146C180.192 22.6746 179.36 22.3546 178.293 22.3546C177.226 22.3546 176.384 22.6746 175.765 23.3146C175.168 23.9333 174.869 24.8186 174.869 25.9706V35.6666H169.429V25.9706C169.429 24.8186 169.12 23.9333 168.501 23.3146C167.904 22.6746 167.072 22.3546 166.005 22.3546C164.938 22.3546 164.096 22.6746 163.477 23.3146C162.88 23.9333 162.581 24.8186 162.581 25.9706V35.6666H157.109V17.8106H162.581V20.0506C163.136 19.304 163.861 18.7173 164.757 18.2906C165.653 17.8426 166.666 17.6186 167.797 17.6186C169.141 17.6186 170.336 17.9066 171.381 18.4826C172.448 19.0586 173.28 19.88 173.877 20.9466C174.496 19.9653 175.338 19.1653 176.405 18.5466C177.472 17.928 178.634 17.6186 179.893 17.6186ZM189.296 26.7066C189.296 24.872 189.637 23.2613 190.32 21.8746C191.024 20.488 191.973 19.4213 193.168 18.6746C194.363 17.928 195.696 17.5546 197.168 17.5546C198.427 17.5546 199.525 17.8106 200.464 18.3226C201.424 18.8346 202.16 19.5066 202.672 20.3386V17.8106H208.144V35.6666H202.672V33.1386C202.139 33.9706 201.392 34.6426 200.432 35.1546C199.493 35.6666 198.395 35.9226 197.136 35.9226C195.685 35.9226 194.363 35.5493 193.168 34.8026C191.973 34.0346 191.024 32.9573 190.32 31.5706C189.637 30.1626 189.296 28.5413 189.296 26.7066ZM202.672 26.7386C202.672 25.3733 202.288 24.296 201.52 23.5066C200.773 22.7173 199.856 22.3226 198.768 22.3226C197.68 22.3226 196.752 22.7173 195.984 23.5066C195.237 24.2746 194.864 25.3413 194.864 26.7066C194.864 28.072 195.237 29.16 195.984 29.9706C196.752 30.76 197.68 31.1546 198.768 31.1546C199.856 31.1546 200.773 30.76 201.52 29.9706C202.288 29.1813 202.672 28.104 202.672 26.7386Z" fill="#A0430A"/>
</svg>
